<svg width="396" height="90" viewBox="0 0 396 90" fill="none" xmlns="http://www.w3.org/2000/svg">
<path d="M57.496 18C59.992 18 62.072 18.32 63.736 18.96C65.464 19.6 66.84 20.432 67.864 21.456C68.952 22.48 69.72 23.664 70.168 25.008C70.616 26.288 70.84 27.6 70.84 28.944V66H61.432V29.616C61.432 28.4 61.016 27.6 60.184 27.216C59.416 26.768 58.52 26.544 57.496 26.544H40.504V66H31.384V26.544H10.072V66H0.664V18H57.496ZM79.927 48.72V18H89.335V43.728C89.335 45.968 89.399 48.016 89.527 49.872C89.655 51.664 90.039 53.2 90.679 54.48C91.383 55.76 92.503 56.752 94.039 57.456C95.575 58.16 97.719 58.512 100.471 58.512C103.287 58.512 105.431 58.16 106.903 57.456C108.439 56.752 109.559 55.76 110.263 54.48C111.031 53.2 111.479 51.664 111.607 49.872C111.735 48.016 111.799 45.968 111.799 43.728V18H121.495V48.72C121.495 54.736 119.831 59.312 116.503 62.448C113.239 65.584 107.799 67.152 100.183 67.152C92.951 67.152 87.767 65.584 84.631 62.448C81.495 59.312 79.927 54.736 79.927 48.72ZM135.596 49.104C135.98 50.896 136.492 52.4 137.132 53.616C137.772 54.832 138.604 55.824 139.628 56.592C140.716 57.296 142.028 57.808 143.564 58.128C145.164 58.448 147.116 58.608 149.42 58.608C153.58 58.608 156.716 58.128 158.828 57.168C161.004 56.208 162.092 54.704 162.092 52.656C162.092 51.76 161.868 50.992 161.42 50.352C161.036 49.648 160.332 49.04 159.308 48.528C158.284 47.952 156.94 47.472 155.276 47.088C153.612 46.704 151.564 46.352 149.132 46.032C146.7 45.712 144.268 45.296 141.836 44.784C139.404 44.272 137.228 43.504 135.308 42.48C133.388 41.392 131.82 39.952 130.604 38.16C129.388 36.304 128.78 33.904 128.78 30.96C128.78 26.288 130.412 22.736 133.676 20.304C137.004 17.808 142.06 16.56 148.844 16.56C152.108 16.56 154.86 16.88 157.1 17.52C159.34 18.16 161.228 19.184 162.764 20.592C164.3 22 165.548 23.856 166.508 26.16C167.532 28.4 168.364 31.152 169.004 34.416H159.98C159.596 32.624 159.148 31.152 158.636 30C158.124 28.848 157.452 27.92 156.62 27.216C155.788 26.512 154.732 26 153.452 25.68C152.236 25.36 150.668 25.168 148.748 25.104H147.404C143.948 25.104 141.42 25.616 139.82 26.64C138.22 27.6 137.42 28.944 137.42 30.672C137.42 32.528 138.412 33.968 140.396 34.992C142.38 35.952 145.964 36.752 151.148 37.392C153.324 37.648 155.564 38.032 157.868 38.544C160.172 39.056 162.284 39.856 164.204 40.944C166.124 42.032 167.692 43.504 168.908 45.36C170.188 47.152 170.828 49.52 170.828 52.464C170.828 57.264 169.068 60.912 165.548 63.408C162.028 65.904 157.004 67.152 150.476 67.152C146.892 67.152 143.756 66.896 141.068 66.384C138.38 65.936 136.044 65.04 134.06 63.696C132.14 62.352 130.572 60.528 129.356 58.224C128.14 55.856 127.244 52.816 126.668 49.104H135.596ZM180.995 18H190.403V66H180.995V18ZM180.131 5.712C180.131 4.176 180.483 2.864 181.187 1.776C181.955 0.623997 183.459 0.0479965 185.699 0.0479965C187.939 0.0479965 189.443 0.623997 190.211 1.776C190.979 2.864 191.363 4.176 191.363 5.712C191.363 7.312 190.979 8.656 190.211 9.744C189.443 10.832 187.939 11.376 185.699 11.376C183.459 11.376 181.955 10.832 181.187 9.744C180.483 8.656 180.131 7.312 180.131 5.712ZM224.13 16.656C227.97 16.656 231.17 17.392 233.73 18.864C236.29 20.336 238.402 22.032 240.066 23.952V18H249.474V90H240.066V59.472C238.402 61.52 236.29 63.344 233.73 64.944C231.234 66.48 228.034 67.248 224.13 67.248C220.162 67.248 216.674 66.608 213.666 65.328C210.722 64.048 208.258 62.256 206.274 59.952C204.29 57.648 202.786 54.928 201.762 51.792C200.802 48.592 200.322 45.136 200.322 41.424C200.322 37.648 200.802 34.256 201.762 31.248C202.786 28.176 204.29 25.584 206.274 23.472C208.258 21.296 210.722 19.632 213.666 18.48C216.674 17.264 220.162 16.656 224.13 16.656ZM224.13 58.8C227.01 58.8 229.442 58.352 231.426 57.456C233.474 56.56 235.138 55.344 236.418 53.808C237.698 52.272 238.626 50.48 239.202 48.432C239.778 46.32 240.066 44.08 240.066 41.712C240.066 39.344 239.778 37.168 239.202 35.184C238.626 33.136 237.698 31.376 236.418 29.904C235.138 28.432 233.474 27.28 231.426 26.448C229.442 25.616 227.01 25.2 224.13 25.2C221.826 25.2 219.778 25.616 217.986 26.448C216.194 27.28 214.69 28.432 213.474 29.904C212.258 31.376 211.33 33.136 210.69 35.184C210.114 37.168 209.826 39.344 209.826 41.712C209.826 44.08 210.114 46.32 210.69 48.432C211.33 50.48 212.258 52.272 213.474 53.808C214.69 55.344 216.194 56.56 217.986 57.456C219.778 58.352 221.826 58.8 224.13 58.8ZM283.003 52.752C283.003 50.192 283.579 47.952 284.731 46.032C285.883 44.112 287.387 42.416 289.243 40.944C291.163 39.472 293.339 38.224 295.771 37.2C298.203 36.176 300.699 35.312 303.259 34.608C305.819 33.84 308.315 33.232 310.747 32.784C313.243 32.336 315.483 31.952 317.467 31.632V30.576C317.467 28.656 317.019 27.504 316.123 27.12C315.227 26.736 314.107 26.544 312.763 26.544H285.211V18H315.451C318.267 18 320.443 18.384 321.979 19.152C323.515 19.856 324.635 20.88 325.339 22.224C326.043 23.504 326.459 25.072 326.587 26.928C326.715 28.72 326.779 30.704 326.779 32.88V54.768C326.779 55.792 326.907 56.496 327.163 56.88C327.483 57.264 328.123 57.456 329.083 57.456H332.827V66H324.667C323.003 66 321.691 65.776 320.731 65.328C319.771 64.816 319.035 64.208 318.523 63.504C318.011 62.736 317.691 61.936 317.563 61.104C317.435 60.272 317.371 59.536 317.371 58.896V55.152C317.179 56.56 316.635 58 315.739 59.472C314.843 60.88 313.627 62.16 312.091 63.312C310.619 64.464 308.891 65.392 306.907 66.096C304.923 66.864 302.747 67.248 300.379 67.248C298.203 67.248 296.059 66.928 293.947 66.288C291.899 65.648 290.043 64.72 288.379 63.504C286.779 62.224 285.467 60.688 284.443 58.896C283.483 57.104 283.003 55.056 283.003 52.752ZM292.987 51.984C292.987 52.944 293.243 53.776 293.755 54.48C294.331 55.184 295.003 55.76 295.771 56.208C296.603 56.656 297.499 57.008 298.459 57.264C299.483 57.456 300.443 57.552 301.339 57.552C303.259 57.552 305.179 57.168 307.099 56.4C309.019 55.568 310.715 54.544 312.187 53.328C313.723 52.048 314.971 50.64 315.931 49.104C316.891 47.504 317.371 45.968 317.371 44.496V39.408C316.347 39.6 315.035 39.888 313.435 40.272C311.835 40.592 310.139 41.008 308.347 41.52C306.555 42.032 304.731 42.64 302.875 43.344C301.083 43.984 299.451 44.752 297.979 45.648C296.507 46.48 295.291 47.44 294.331 48.528C293.435 49.552 292.987 50.704 292.987 51.984ZM342.526 18H351.934V66H342.526V18ZM341.662 5.712C341.662 4.176 342.014 2.864 342.718 1.776C343.486 0.623997 344.99 0.0479965 347.23 0.0479965C349.47 0.0479965 350.974 0.623997 351.742 1.776C352.51 2.864 352.894 4.176 352.894 5.712C352.894 7.312 352.51 8.656 351.742 9.744C350.974 10.832 349.47 11.376 347.23 11.376C344.99 11.376 343.486 10.832 342.718 9.744C342.014 8.656 341.662 7.312 341.662 5.712ZM373.429 18H395.125V26.544H375.445C374.037 26.544 373.205 26.64 372.949 26.832C372.693 26.96 372.565 27.376 372.565 28.08V65.904H363.157V28.176C363.157 26.704 363.317 25.36 363.637 24.144C364.021 22.864 364.597 21.776 365.365 20.88C366.197 19.984 367.253 19.28 368.533 18.768C369.877 18.256 371.509 18 373.429 18Z" fill="black"/>
</svg>
