<svg width="76" height="24" viewBox="0 0 76 24" fill="none" xmlns="http://www.w3.org/2000/svg">
<path d="M16.9807 6.16503C18.5967 6.16503 19.8767 6.64503 20.8207 7.60503C21.7807 8.54903 22.2607 9.97303 22.2607 11.877V19.269H18.5167V12.453C18.5167 11.429 18.3007 10.669 17.8687 10.173C17.4527 9.66103 16.8527 9.40503 16.0687 9.40503C15.1887 9.40503 14.4927 9.69303 13.9807 10.269C13.4687 10.829 13.2127 11.669 13.2127 12.789V19.269H9.46869V12.453C9.46869 10.421 8.65269 9.40503 7.02069 9.40503C6.15669 9.40503 5.46869 9.69303 4.95669 10.269C4.44469 10.829 4.18869 11.669 4.18869 12.789V19.269H0.44469V6.35703H4.02069V7.84503C4.50069 7.30103 5.08469 6.88503 5.77269 6.59703C6.47669 6.30903 7.24469 6.16503 8.07669 6.16503C8.98869 6.16503 9.81269 6.34903 10.5487 6.71703C11.2847 7.06903 11.8767 7.58903 12.3247 8.27703C12.8527 7.60503 13.5167 7.08503 14.3167 6.71703C15.1327 6.34903 16.0207 6.16503 16.9807 6.16503ZM38.6246 6.35703V19.269H35.0726V17.733C34.5766 18.293 33.9846 18.725 33.2966 19.029C32.6086 19.317 31.8646 19.461 31.0646 19.461C29.3686 19.461 28.0246 18.973 27.0326 17.997C26.0406 17.021 25.5446 15.573 25.5446 13.653V6.35703H29.2886V13.101C29.2886 15.181 30.1606 16.221 31.9046 16.221C32.8006 16.221 33.5206 15.933 34.0646 15.357C34.6086 14.765 34.8806 13.893 34.8806 12.741V6.35703H38.6246ZM46.4371 19.461C45.3651 19.461 44.3171 19.333 43.2931 19.077C42.2691 18.805 41.4531 18.469 40.8451 18.069L42.0931 15.381C42.6691 15.749 43.3651 16.053 44.1811 16.293C44.9971 16.517 45.7971 16.629 46.5811 16.629C48.1651 16.629 48.9571 16.237 48.9571 15.453C48.9571 15.085 48.7411 14.821 48.3091 14.661C47.8771 14.501 47.2131 14.365 46.3171 14.253C45.2611 14.093 44.3891 13.909 43.7011 13.701C43.0131 13.493 42.4131 13.125 41.9011 12.597C41.4051 12.069 41.1571 11.317 41.1571 10.341C41.1571 9.52503 41.3891 8.80503 41.8531 8.18103C42.3331 7.54103 43.0211 7.04503 43.9171 6.69303C44.8291 6.34103 45.9011 6.16503 47.1331 6.16503C48.0451 6.16503 48.9491 6.26903 49.8451 6.47703C50.7571 6.66903 51.5091 6.94103 52.1011 7.29303L50.8531 9.95703C49.7171 9.31703 48.4771 8.99703 47.1331 8.99703C46.3331 8.99703 45.7331 9.10903 45.3331 9.33303C44.9331 9.55703 44.7331 9.84503 44.7331 10.197C44.7331 10.597 44.9491 10.877 45.3811 11.037C45.8131 11.197 46.5011 11.349 47.4451 11.493C48.5011 11.669 49.3651 11.861 50.0371 12.069C50.7091 12.261 51.2931 12.621 51.7891 13.149C52.2851 13.677 52.5331 14.413 52.5331 15.357C52.5331 16.157 52.2931 16.869 51.8131 17.493C51.3331 18.117 50.6291 18.605 49.7011 18.957C48.7891 19.293 47.7011 19.461 46.4371 19.461ZM54.8431 6.35703H58.5871V19.269H54.8431V6.35703ZM56.7151 4.55703C56.0271 4.55703 55.4671 4.35703 55.0351 3.95703C54.6031 3.55703 54.3871 3.06103 54.3871 2.46903C54.3871 1.87703 54.6031 1.38103 55.0351 0.981027C55.4671 0.581027 56.0271 0.381026 56.7151 0.381026C57.4031 0.381026 57.9631 0.573027 58.3951 0.957027C58.8271 1.34103 59.0431 1.82103 59.0431 2.39703C59.0431 3.02103 58.8271 3.54103 58.3951 3.95703C57.9631 4.35703 57.4031 4.55703 56.7151 4.55703ZM75.1659 6.35703V23.925H71.4219V17.901C70.4939 18.941 69.2059 19.461 67.5579 19.461C66.3419 19.461 65.2379 19.189 64.2459 18.645C63.2699 18.101 62.5019 17.325 61.9419 16.317C61.3819 15.309 61.1019 14.141 61.1019 12.813C61.1019 11.485 61.3819 10.317 61.9419 9.30903C62.5019 8.30103 63.2699 7.52503 64.2459 6.98103C65.2379 6.43703 66.3419 6.16503 67.5579 6.16503C69.3179 6.16503 70.6619 6.72503 71.5899 7.84503V6.35703H75.1659ZM68.2059 16.389C69.1499 16.389 69.9339 16.069 70.5579 15.429C71.1819 14.773 71.4939 13.901 71.4939 12.813C71.4939 11.725 71.1819 10.861 70.5579 10.221C69.9339 9.56503 69.1499 9.23703 68.2059 9.23703C67.2459 9.23703 66.4539 9.56503 65.8299 10.221C65.2059 10.861 64.8939 11.725 64.8939 12.813C64.8939 13.901 65.2059 14.773 65.8299 15.429C66.4539 16.069 67.2459 16.389 68.2059 16.389Z" fill="#E4FF4B"/>
</svg>
